<svg xmlns="http://www.w3.org/2000/svg" width="394.834" height="394.139" viewBox="0 0 394.834 394.139"><g transform="translate(-2499.283 -939.059)" opacity="0.224"><g transform="translate(2499.283 939.058)"><g transform="translate(388.355 198.861)"><path d="M3278.01,1342.7a3.363,3.363,0,0,1-3.209-3.347,3.241,3.241,0,1,1,6.479.162A3.15,3.15,0,0,1,3278.01,1342.7Z" transform="translate(-3274.802 -1336.171)" fill="#65125e"/></g><g transform="translate(384.132 234.462)"><path d="M3268.931,1413.714a3.266,3.266,0,0,1,1.354-6.39,3.266,3.266,0,0,1-1.354,6.39Z" transform="translate(-3266.37 -1407.264)" fill="#65125e"/></g><g transform="translate(373.414 268.685)"><path d="M3246.928,1481.844a3.269,3.269,0,0,1-1.705-4.254,3.33,3.33,0,0,1,4.273-1.752,3.182,3.182,0,0,1,1.706,4.254A3.238,3.238,0,0,1,3246.928,1481.844Z" transform="translate(-3244.966 -1475.605)" fill="#65125e"/></g><g transform="translate(356.59 300.364)"><path d="M3212.795,1544.784a3.239,3.239,0,0,1-.877-4.481,3.362,3.362,0,0,1,4.542-.925,3.152,3.152,0,0,1,.877,4.481A3.266,3.266,0,0,1,3212.795,1544.784Z" transform="translate(-3211.37 -1538.866)" fill="#65125e"/></g><g transform="translate(334.261 328.438)"><path d="M3167.737,1600.432a3.212,3.212,0,0,1-.026-4.55,3.391,3.391,0,0,1,4.651-.063,3.126,3.126,0,0,1,.026,4.55A3.294,3.294,0,0,1,3167.737,1600.432Z" transform="translate(-3166.78 -1594.928)" fill="#65125e"/></g><g transform="translate(307.175 351.959)"><path d="M3113.263,1646.9a3.177,3.177,0,0,1,.825-4.454,3.427,3.427,0,0,1,4.6.815,3.094,3.094,0,0,1-.825,4.453A3.327,3.327,0,0,1,3113.263,1646.9Z" transform="translate(-3112.691 -1641.898)" fill="#65125e"/></g><g transform="translate(276.231 370.106)"><path d="M3051.176,1682.58a3.133,3.133,0,0,1,1.648-4.19,3.341,3.341,0,0,1,4.309,1.529,3.17,3.17,0,0,1-1.574,4.346A3.372,3.372,0,0,1,3051.176,1682.58Z" transform="translate(-3050.898 -1678.136)" fill="#65125e"/></g><g transform="translate(242.473 382.083)"><path d="M2983.574,1706.083a3.318,3.318,0,0,1,2.372-3.894,3.128,3.128,0,0,1,3.928,2.2,3.379,3.379,0,0,1-2.324,4.085A3.194,3.194,0,0,1,2983.574,1706.083Z" transform="translate(-2983.485 -1702.053)" fill="#65125e"/></g><g transform="translate(207.043 387.644)"><path d="M2912.738,1716.7a3.4,3.4,0,0,1,3.034-3.532,3.2,3.2,0,0,1,3.47,2.935,3.3,3.3,0,0,1-3.034,3.531A3.118,3.118,0,0,1,2912.738,1716.7Z" transform="translate(-2912.734 -1713.159)" fill="#65125e"/></g><g transform="translate(171.19 386.721)"><path d="M2841.169,1714.2a3.334,3.334,0,0,1,3.627-2.86,3.241,3.241,0,1,1-.761,6.436A3.178,3.178,0,0,1,2841.169,1714.2Z" transform="translate(-2841.139 -1711.315)" fill="#65125e"/></g><g transform="translate(136.143 379.219)"><path d="M2771.314,1698.589a3.266,3.266,0,0,1,6.226,1.973,3.266,3.266,0,0,1-6.226-1.973Z" transform="translate(-2771.15 -1696.335)" fill="#65125e"/></g><g transform="translate(103.085 365.384)"><path d="M2705.536,1670.392a3.254,3.254,0,0,1,4.387-1.3,3.346,3.346,0,0,1,1.344,4.427,3.166,3.166,0,0,1-4.387,1.3A3.253,3.253,0,0,1,2705.536,1670.392Z" transform="translate(-2705.136 -1668.707)" fill="#65125e"/></g><g transform="translate(73.121 345.723)"><path d="M2646.03,1630.626a3.225,3.225,0,0,1,4.535-.453,3.375,3.375,0,0,1,.5,4.616,3.14,3.14,0,0,1-4.535.453A3.281,3.281,0,0,1,2646.03,1630.626Z" transform="translate(-2645.3 -1629.444)" fill="#65125e"/></g><g transform="translate(47.247 320.913)"><path d="M2594.783,1580.654a3.2,3.2,0,0,1,4.522.4,3.408,3.408,0,0,1-.375,4.645,3.112,3.112,0,0,1-4.522-.4A3.311,3.311,0,0,1,2594.783,1580.654Z" transform="translate(-2593.632 -1579.9)" fill="#65125e"/></g><g transform="translate(26.342 291.776)"><path d="M2553.55,1522.128a3.157,3.157,0,0,1,4.343,1.242,3.436,3.436,0,0,1-1.2,4.478,3.089,3.089,0,0,1-4.4-1.208A3.348,3.348,0,0,1,2553.55,1522.128Z" transform="translate(-2551.887 -1521.716)" fill="#65125e"/></g><g transform="translate(11.122 259.287)"><path d="M2523.749,1457.006a3.106,3.106,0,0,1,4,2.037,3.143,3.143,0,0,1-1.823,4.113,3.362,3.362,0,0,1-4.281-1.936A3.4,3.4,0,0,1,2523.749,1457.006Z" transform="translate(-2521.492 -1456.837)" fill="#65125e"/></g><g transform="translate(2.301 224.553)"><path d="M2506.515,1387.508a3.44,3.44,0,0,1,3.824,2.694,3.165,3.165,0,0,1-2.575,3.717,3.341,3.341,0,0,1-3.825-2.694A3.083,3.083,0,0,1,2506.515,1387.508Z" transform="translate(-2503.877 -1387.476)" fill="#65125e"/></g><g transform="translate(0 188.744)"><path d="M2502.553,1315.971a3.364,3.364,0,0,1,3.209,3.347,3.241,3.241,0,1,1-6.479-.162A3.151,3.151,0,0,1,2502.553,1315.971Z" transform="translate(-2499.282 -1315.968)" fill="#65125e"/></g><g transform="translate(4.22 153.143)"><path d="M2511.63,1244.959a3.266,3.266,0,0,1-1.354,6.389,3.266,3.266,0,0,1,1.354-6.389Z" transform="translate(-2507.71 -1244.875)" fill="#65125e"/></g><g transform="translate(14.912 118.946)"><path d="M2533.607,1176.855a3.269,3.269,0,0,1,1.706,4.254,3.331,3.331,0,0,1-4.273,1.752,3.181,3.181,0,0,1-1.706-4.255A3.237,3.237,0,0,1,2533.607,1176.855Z" transform="translate(-2529.062 -1176.585)" fill="#65125e"/></g><g transform="translate(31.702 87.304)"><path d="M2567.707,1113.952a3.239,3.239,0,0,1,.877,4.481,3.36,3.36,0,0,1-4.542.925,3.153,3.153,0,0,1-.877-4.481A3.267,3.267,0,0,1,2567.707,1113.952Z" transform="translate(-2562.59 -1113.398)" fill="#65125e"/></g><g transform="translate(53.996 59.267)"><path d="M2612.729,1058.341a3.21,3.21,0,0,1,.027,4.549,3.391,3.391,0,0,1-4.651.063,3.126,3.126,0,0,1-.026-4.549A3.294,3.294,0,0,1,2612.729,1058.341Z" transform="translate(-2607.109 -1057.411)" fill="#65125e"/></g><g transform="translate(81.051 35.776)"><path d="M2667.172,1011.9a3.178,3.178,0,0,1-.825,4.454,3.427,3.427,0,0,1-4.6-.815,3.094,3.094,0,0,1,.824-4.454A3.327,3.327,0,0,1,2667.172,1011.9Z" transform="translate(-2661.135 -1010.5)" fill="#65125e"/></g><g transform="translate(112.04 17.639)"><path d="M2729.3,976.232a3.134,3.134,0,0,1-1.648,4.19,3.342,3.342,0,0,1-4.309-1.529,3.171,3.171,0,0,1,1.574-4.347A3.372,3.372,0,0,1,2729.3,976.232Z" transform="translate(-2723.02 -974.282)" fill="#65125e"/></g><g transform="translate(145.857 5.491)"><path d="M2796.964,952.559a3.317,3.317,0,0,1-2.372,3.893,3.128,3.128,0,0,1-3.927-2.195,3.378,3.378,0,0,1,2.324-4.085A3.193,3.193,0,0,1,2796.964,952.559Z" transform="translate(-2790.549 -950.023)" fill="#65125e"/></g><g transform="translate(181.271)"><path d="M2867.785,942.008a3.4,3.4,0,0,1-3.034,3.531,3.2,3.2,0,0,1-3.47-2.934,3.3,3.3,0,0,1,3.034-3.532A3.118,3.118,0,0,1,2867.785,942.008Z" transform="translate(-2861.27 -939.058)" fill="#65125e"/></g><g transform="translate(217.106 0.941)"><path d="M2939.337,944.535a3.334,3.334,0,0,1-3.627,2.861,3.241,3.241,0,1,1,.761-6.436A3.178,3.178,0,0,1,2939.337,944.535Z" transform="translate(-2932.828 -940.938)" fill="#65125e"/></g><g transform="translate(252.168 8.427)"><path d="M3009.205,960.124a3.266,3.266,0,0,1-6.226-1.973,3.266,3.266,0,0,1,6.226,1.973Z" transform="translate(-3002.846 -955.886)" fill="#65125e"/></g><g transform="translate(285.259 22.231)"><path d="M3075.017,988.29a3.254,3.254,0,0,1-4.387,1.3,3.346,3.346,0,0,1-1.344-4.427,3.166,3.166,0,0,1,4.387-1.295A3.252,3.252,0,0,1,3075.017,988.29Z" transform="translate(-3068.926 -983.452)" fill="#65125e"/></g><g transform="translate(315.261 41.857)"><path d="M3134.561,1028.022a3.226,3.226,0,0,1-4.535.453,3.375,3.375,0,0,1-.5-4.616,3.14,3.14,0,0,1,4.535-.453A3.28,3.28,0,0,1,3134.561,1028.022Z" transform="translate(-3128.838 -1022.644)" fill="#65125e"/></g><g transform="translate(341.17 66.633)"><path d="M3185.842,1077.959a3.194,3.194,0,0,1-4.522-.4,3.408,3.408,0,0,1,.375-4.645,3.111,3.111,0,0,1,4.522.4A3.309,3.309,0,0,1,3185.842,1077.959Z" transform="translate(-3180.577 -1072.12)" fill="#65125e"/></g><g transform="translate(362.102 95.757)"><path d="M3227.1,1136.473a3.157,3.157,0,0,1-4.343-1.242,3.436,3.436,0,0,1,1.2-4.477,3.088,3.088,0,0,1,4.4,1.208A3.348,3.348,0,0,1,3227.1,1136.473Z" transform="translate(-3222.376 -1130.279)" fill="#65125e"/></g><g transform="translate(377.239 128.326)"><path d="M3256.821,1201.675a3.106,3.106,0,0,1-4-2.037,3.142,3.142,0,0,1,1.823-4.113,3.361,3.361,0,0,1,4.281,1.935A3.4,3.4,0,0,1,3256.821,1201.675Z" transform="translate(-3252.604 -1195.317)" fill="#65125e"/></g><g transform="translate(386.012 163.092)"><path d="M3274.007,1271.2a3.439,3.439,0,0,1-3.824-2.694,3.165,3.165,0,0,1,2.575-3.717,3.34,3.34,0,0,1,3.824,2.694A3.083,3.083,0,0,1,3274.007,1271.2Z" transform="translate(-3270.124 -1264.743)" fill="#65125e"/></g></g><g transform="translate(2538.314 978.518)"><g transform="translate(306.35 172.763)"><path d="M3193.072,1371.8a4.767,4.767,0,0,1-4.062-5.049,4.592,4.592,0,0,1,9.107,1.167A4.343,4.343,0,0,1,3193.072,1371.8Z" transform="translate(-3188.986 -1362.853)" fill="#65125e"/></g><g transform="translate(293.865 216.837)"><path d="M3166.73,1459.466a4.79,4.79,0,0,1-2.343-6,4.592,4.592,0,0,1,8.353,3.812A4.325,4.325,0,0,1,3166.73,1459.466Z" transform="translate(-3164.054 -1450.865)" fill="#65125e"/></g><g transform="translate(268.905 255.235)"><path d="M3115.661,1535.408a4.67,4.67,0,0,1-.393-6.348,4.461,4.461,0,0,1,6.3-.414,4.619,4.619,0,0,1,.57,6.508A4.428,4.428,0,0,1,3115.661,1535.408Z" transform="translate(-3114.211 -1527.544)" fill="#65125e"/></g><g transform="translate(233.673 284.613)"><path d="M3044.466,1593a4.461,4.461,0,0,1,1.548-6.095,4.4,4.4,0,0,1,6.112,1.422,4.674,4.674,0,0,1-1.348,6.426A4.618,4.618,0,0,1,3044.466,1593Z" transform="translate(-3043.854 -1586.211)" fill="#65125e"/></g><g transform="translate(191.359 302.272)"><path d="M2959.465,1626.99a4.488,4.488,0,0,1,8.7-2.183,4.5,4.5,0,1,1-8.7,2.183Z" transform="translate(-2959.356 -1621.475)" fill="#65125e"/></g><g transform="translate(145.707 306.709)"><path d="M2868.209,1634.546a4.559,4.559,0,0,1,4.711-4.21,4.417,4.417,0,0,1,4.252,4.627,4.662,4.662,0,0,1-4.731,4.542A4.525,4.525,0,0,1,2868.209,1634.546Z" transform="translate(-2868.192 -1630.335)" fill="#65125e"/></g><g transform="translate(100.771 297.48)"><path d="M2778.8,1614.782a4.488,4.488,0,0,1,8.425,3.09,4.5,4.5,0,1,1-8.425-3.09Z" transform="translate(-2778.458 -1611.906)" fill="#65125e"/></g><g transform="translate(60.575 275.355)"><path d="M2699.221,1569.46a4.435,4.435,0,0,1,6.245-.787,4.573,4.573,0,0,1,.862,6.268,4.514,4.514,0,0,1-6.43,1.033A4.645,4.645,0,0,1,2699.221,1569.46Z" transform="translate(-2698.189 -1567.723)" fill="#65125e"/></g><g transform="translate(28.641 242.461)"><path d="M2636.448,1502.843a4.49,4.49,0,0,1,6.237,1.06,4.76,4.76,0,0,1-1.106,6.307,4.352,4.352,0,0,1-6.362-.967A4.592,4.592,0,0,1,2636.448,1502.843Z" transform="translate(-2634.42 -1502.036)" fill="#65125e"/></g><g transform="translate(7.86 201.616)"><path d="M2596.184,1420.668a4.509,4.509,0,0,1,5.657,2.857,4.8,4.8,0,0,1-2.985,5.716,4.315,4.315,0,0,1-5.732-2.83A4.572,4.572,0,0,1,2596.184,1420.668Z" transform="translate(-2592.922 -1420.47)" fill="#65125e"/></g><g transform="translate(0 156.437)"><path d="M2581.861,1330.253a4.477,4.477,0,0,1,4.548,4.387,4.754,4.754,0,0,1-4.459,4.589,4.357,4.357,0,0,1-4.721-4.38A4.6,4.6,0,0,1,2581.861,1330.253Z" transform="translate(-2577.225 -1330.252)" fill="#65125e"/></g><g transform="translate(5.782 110.946)"><path d="M2594.775,1239.63a4.5,4.5,0,0,1,3.057,5.542,4.777,4.777,0,0,1-5.636,3.057,4.336,4.336,0,0,1-3.193-5.578A4.586,4.586,0,0,1,2594.775,1239.63Z" transform="translate(-2588.771 -1239.409)" fill="#65125e"/></g><g transform="translate(24.853 69.212)"><path d="M2634.007,1156.886a4.553,4.553,0,0,1,1.327,6.224,4.769,4.769,0,0,1-6.367,1.213,4.34,4.34,0,0,1-1.327-6.223A4.532,4.532,0,0,1,2634.007,1156.886Z" transform="translate(-2626.855 -1156.069)" fill="#65125e"/></g><g transform="translate(55.339 34.905)"><path d="M2695.8,1089.283a4.616,4.616,0,0,1-.528,6.376,4.705,4.705,0,0,1-6.412-.672,4.4,4.4,0,0,1,.528-6.376A4.476,4.476,0,0,1,2695.8,1089.283Z" transform="translate(-2687.734 -1087.56)" fill="#65125e"/></g><g transform="translate(94.571 11.117)"><path d="M2774.782,1042.928a4.493,4.493,0,1,1-8.3,3.446,4.493,4.493,0,1,1,8.3-3.446Z" transform="translate(-2766.078 -1040.057)" fill="#65125e"/></g><g transform="translate(139.079)"><path d="M2863.944,1022.036a4.628,4.628,0,0,1-4.029,4.98,4.691,4.691,0,0,1-4.918-4.158,4.409,4.409,0,0,1,4.029-4.98A4.464,4.464,0,0,1,2863.944,1022.036Z" transform="translate(-2854.958 -1017.857)" fill="#65125e"/></g><g transform="translate(184.898 2.376)"><path d="M2955.314,1028.132a4.627,4.627,0,0,1-5.32,3.565,4.7,4.7,0,0,1-3.469-5.428,4.4,4.4,0,0,1,5.319-3.565A4.465,4.465,0,0,1,2955.314,1028.132Z" transform="translate(-2946.456 -1022.602)" fill="#65125e"/></g><g transform="translate(227.902 18.23)"><path d="M3040.743,1061.005a4.493,4.493,0,1,1-7.884-4.308,4.493,4.493,0,1,1,7.884,4.308Z" transform="translate(-3032.33 -1054.261)" fill="#65125e"/></g><g transform="translate(264.303 46.054)"><path d="M3112.721,1117.56a4.74,4.74,0,0,1-6.467.016,4.581,4.581,0,0,1,.122-6.378,4.507,4.507,0,0,1,6.467-.016A4.364,4.364,0,0,1,3112.721,1117.56Z" transform="translate(-3105.022 -1109.824)" fill="#65125e"/></g><g transform="translate(290.917 83.373)"><path d="M3164.843,1192.844a4.8,4.8,0,0,1-6.182-1.894,4.592,4.592,0,0,1,8.185-4.161A4.318,4.318,0,0,1,3164.843,1192.844Z" transform="translate(-3158.167 -1184.347)" fill="#65125e"/></g><g transform="translate(305.304 126.913)"><path d="M3192.359,1280.207a4.787,4.787,0,0,1-5.383-3.629,4.592,4.592,0,0,1,9.048-1.56A4.326,4.326,0,0,1,3192.359,1280.207Z" transform="translate(-3186.898 -1271.293)" fill="#65125e"/></g></g><g transform="translate(2577.519 1017.158)"><g transform="translate(221.834 145.702)"><path d="M3102.69,1397.2a6.011,6.011,0,0,1-3.949-7.2,6.159,6.159,0,0,1,7.24-3.846,5.608,5.608,0,0,1,4.143,7.256A5.723,5.723,0,0,1,3102.69,1397.2Z" transform="translate(-3098.505 -1385.977)" fill="#65125e"/></g><g transform="translate(194.434 192.419)"><path d="M3045.5,1489.075a6.026,6.026,0,0,1-.168-8.223,6.166,6.166,0,0,1,8.2-.045,5.6,5.6,0,0,1,.3,8.343A5.71,5.71,0,0,1,3045.5,1489.075Z" transform="translate(-3043.788 -1479.268)" fill="#65125e"/></g><g transform="translate(148.419 220.904)"><path d="M2952.109,1543.67a5.985,5.985,0,0,1,3.695-7.322,6.154,6.154,0,0,1,7.273,3.774,5.611,5.611,0,0,1-3.619,7.533A5.746,5.746,0,0,1,2952.109,1543.67Z" transform="translate(-2951.899 -1536.15)" fill="#65125e"/></g><g transform="translate(94.241 224.777)"><path d="M2843.863,1548.655a5.833,5.833,0,0,1,6.646-4.66,5.9,5.9,0,0,1,4.715,6.6,5.776,5.776,0,1,1-11.36-1.936Z" transform="translate(-2843.71 -1543.885)" fill="#65125e"/></g><g transform="translate(44.464 203.129)"><path d="M2745.7,1502.871a5.838,5.838,0,0,1,8.054-1.042,5.9,5.9,0,0,1,1.1,8.039,5.776,5.776,0,1,1-9.158-7Z" transform="translate(-2744.309 -1500.653)" fill="#65125e"/></g><g transform="translate(10.444 160.933)"><path d="M2680.032,1416.843a5.824,5.824,0,0,1,7.6,2.828,5.9,5.9,0,0,1-2.755,7.626,5.823,5.823,0,0,1-8.025-2.628A5.885,5.885,0,0,1,2680.032,1416.843Z" transform="translate(-2676.372 -1416.391)" fill="#65125e"/></g><g transform="translate(0 107.66)"><path d="M2661.946,1310.042a5.937,5.937,0,0,1,5.439,6.026,5.944,5.944,0,1,1-5.439-6.026Z" transform="translate(-2655.516 -1310.009)" fill="#65125e"/></g><g transform="translate(15.617 55.606)"><path d="M2695.679,1207.052a5.984,5.984,0,0,1,2.022,7.879,5.943,5.943,0,0,1-10.235-6.035A5.749,5.749,0,0,1,2695.679,1207.052Z" transform="translate(-2686.702 -1206.061)" fill="#65125e"/></g><g transform="translate(53.559 16.685)"><path d="M2773.315,1131.417a5.958,5.958,0,0,1-1.869,7.907,5.944,5.944,0,0,1-6.27-10.094A5.77,5.77,0,0,1,2773.315,1131.417Z" transform="translate(-2762.469 -1128.337)" fill="#65125e"/></g><g transform="translate(105.233)"><path d="M2877.208,1100.667a6.167,6.167,0,0,1-5.321,6.242,5.985,5.985,0,0,1-6.177-5.4,5.746,5.746,0,0,1,5.313-6.453A5.6,5.6,0,0,1,2877.208,1100.667Z" transform="translate(-2865.66 -1095.019)" fill="#65125e"/></g><g transform="translate(158.767 9.168)"><path d="M2983.527,1121.643a6.169,6.169,0,0,1-7.633,3.07,6.069,6.069,0,0,1-2.925-7.711,5.675,5.675,0,0,1,7.684-3.176A5.6,5.6,0,0,1,2983.527,1121.643Z" transform="translate(-2972.563 -1113.327)" fill="#65125e"/></g><g transform="translate(201.75 42.139)"><path d="M3067.754,1189.631a6.177,6.177,0,0,1-8.175-.823,6.049,6.049,0,0,1,.967-8.179,5.692,5.692,0,0,1,8.294.734A5.593,5.593,0,0,1,3067.754,1189.631Z" transform="translate(-3058.397 -1179.167)" fill="#65125e"/></g><g transform="translate(224.432 91.413)"><path d="M3110.719,1289.07a5.771,5.771,0,1,1-2.207-11.325,5.771,5.771,0,1,1,2.207,11.325Z" transform="translate(-3103.691 -1277.564)" fill="#65125e"/></g></g><g transform="translate(2618.005 1062.471)"><g transform="translate(129.306 110.65)"><path d="M2997.006,1419.441c-2.807-2.746-3.256-7.3-.941-10.115a7.652,7.652,0,0,1,10.04-1.72c3.445,2.026,4.258,6.854,1.542,10.58C3004.735,1421.768,2999.96,1422.321,2997.006,1419.441Z" transform="translate(-2994.579 -1406.466)" fill="#65125e"/></g><g transform="translate(72.664 139.214)"><path d="M2881.5,1470.57a7.484,7.484,0,0,1,14.92-.313c.564,3.922-2.687,7.724-7.3,7.83C2884.5,1478.116,2881.093,1474.673,2881.5,1470.57Z" transform="translate(-2881.468 -1463.507)" fill="#65125e"/></g><g transform="translate(15.179 112.957)"><path d="M2769.693,1412.348a7.481,7.481,0,0,1,9.539,11.471,7.462,7.462,0,1,1-9.539-11.471Z" transform="translate(-2766.674 -1411.073)" fill="#65125e"/></g><g transform="translate(0 51.322)"><path d="M2745.616,1288.327a7.481,7.481,0,0,1-3.025,14.608,7.462,7.462,0,1,1,3.025-14.608Z" transform="translate(-2736.363 -1287.991)" fill="#65125e"/></g><g transform="translate(38.184 1.261)"><path d="M2827.02,1192.387a7.728,7.728,0,0,1-3.533,9.537,6.853,6.853,0,0,1-5.293.414,7.524,7.524,0,0,1-4.479-3.2,6.9,6.9,0,0,1-.84-5.636,8.242,8.242,0,0,1,4.023-4.589C2821,1186.785,2825.687,1188.673,2827.02,1192.387Z" transform="translate(-2812.613 -1188.022)" fill="#65125e"/></g><g transform="translate(101.66)"><path d="M2953.32,1196.334a7.483,7.483,0,0,1-13.578-6.191c1.25-3.914,5.777-5.8,9.983-3.88C2953.928,1188.164,2955.4,1192.967,2953.32,1196.334Z" transform="translate(-2939.372 -1185.505)" fill="#65125e"/></g><g transform="translate(142.095 48.427)"><path d="M3028.9,1297.123c-4,.5-7.828-2-8.508-5.582-1.08-3.477,1.168-7.484,4.9-8.91,3.793-1.448,7.932.971,9.255,5.4C3035.447,1292.548,3032.892,1296.627,3028.9,1297.123Z" transform="translate(-3020.117 -1282.211)" fill="#65125e"/></g></g><g transform="translate(2661.929 1107.771)"><g transform="translate(22.092 51.885)"><path d="M2868.814,1386.1c1.969-4.313,6.032-6.85,9.216-6.489,3.184.434,6.535,3.768,7.428,8.517.9,4.617-3.333,9.366-9.484,8.644C2869.837,1395.993,2866.8,1390.454,2868.814,1386.1Z" transform="translate(-2868.194 -1379.579)" fill="#65125e"/></g><path d="M2838.853,1278.854c2.8,3.906,2.881,8.582.982,11.213-1.993,2.561-6.506,3.79-11.039,2.2-4.478-1.536-6.495-7.619-2.788-12.567S2836.124,1274.986,2838.853,1278.854Z" transform="translate(-2824.078 -1275.967)" fill="#65125e"/><g transform="translate(56.136 6.7)"><path d="M2946.892,1306.418c-4.808.473-8.949-1.81-10.257-4.745-1.239-2.956.059-7.566,3.647-10.665,3.613-3.155,9.781-1.789,12.25,3.884C2954.949,1300.595,2951.577,1305.993,2946.892,1306.418Z" transform="translate(-2936.177 -1289.348)" fill="#65125e"/></g></g></g></svg>