<svg xmlns="http://www.w3.org/2000/svg" width="38.043" height="38.043" viewBox="0 0 38.043 38.043">
  <g id="Group_503" data-name="Group 503" transform="translate(-346.682 -2133.768)" style="isolation: isolate">
    <g id="Group_501" data-name="Group 501" transform="translate(347.182 2134.268)">
      <path id="Path_826" data-name="Path 826" d="M365.7,2171.311a18.464,18.464,0,1,1,7.209-1.456A18.408,18.408,0,0,1,365.7,2171.311Zm0-36.023a17.5,17.5,0,1,0,12.376,5.126A17.388,17.388,0,0,0,365.7,2135.287Z" transform="translate(-347.182 -2134.268)" fill="#fff" stroke="#fff" stroke-width="1"/>
    </g>
    <g id="Group_502" data-name="Group 502" transform="translate(351.734 2142.385)">
      <path id="Path_827" data-name="Path 827" d="M396.619,2225.069a12.187,12.187,0,1,1,8.618-3.57A12.107,12.107,0,0,1,396.619,2225.069Zm0-23.355a11.168,11.168,0,1,0,7.9,3.271A11.095,11.095,0,0,0,396.619,2201.713Z" transform="translate(-384.432 -2200.694)" fill="#fff" stroke="#fff" stroke-width="1"/>
    </g>
  </g>
</svg>
