<svg xmlns="http://www.w3.org/2000/svg" width="38.043" height="38.043" viewBox="0 0 38.043 38.043"><g transform="translate(-328.5 -3347.457)"><g transform="translate(-18.182 1213.689)" style="isolation:isolate"><g transform="translate(347.182 2134.268)"><path d="M365.7,2171.311a18.464,18.464,0,1,1,7.209-1.456A18.408,18.408,0,0,1,365.7,2171.311Zm0-36.023a17.5,17.5,0,1,0,12.376,5.126A17.388,17.388,0,0,0,365.7,2135.287Z" transform="translate(-347.182 -2134.268)" fill="#fbb03b" stroke="#fbb03b" stroke-width="1"/></g><g transform="translate(351.734 2142.385)"><path d="M396.619,2225.069a12.187,12.187,0,1,1,8.618-3.57A12.107,12.107,0,0,1,396.619,2225.069Zm0-23.355a11.168,11.168,0,1,0,7.9,3.271A11.095,11.095,0,0,0,396.619,2201.713Z" transform="translate(-384.432 -2200.694)" fill="#fbb03b" stroke="#fbb03b" stroke-width="1"/></g></g></g></svg>