<svg xmlns="http://www.w3.org/2000/svg" width="131.4" height="64.428" viewBox="0 0 131.4 64.428">
  <g id="Group_555" data-name="Group 555" transform="translate(1481.4 181)">
    <g id="Group_554" data-name="Group 554" transform="translate(-1481 -180.239)">
      <path id="Path_438" data-name="Path 438" d="M477.244,572.995q-.995,1.456-2.219,3.491t-2.613,4.555q-1.179,2.1-2.323,4.474t-2.185,4.693q-1.04,2.324-1.919,4.462t-1.526,3.769q-.647,1.629-1.017,2.612t-.37,1.006a.834.834,0,0,1-.832.577.794.794,0,0,1-.532-.2.9.9,0,0,1-.3-.5q0-.023-.219-.983l-.59-2.566q-.37-1.606-.844-3.7t-.994-4.37q-.521-2.277-1.052-4.612t-.994-4.439q-1.55,4.37-3.11,7.733a45.116,45.116,0,0,1-3.2,5.849,24.8,24.8,0,0,1-3.387,4.173,16.649,16.649,0,0,1-3.653,2.716,14.779,14.779,0,0,1-4,1.468,21.531,21.531,0,0,1-4.427.44,13.5,13.5,0,0,1-2.566-.265,14.324,14.324,0,0,1-5.271-2.209,10.361,10.361,0,0,1-2.173-1.976,9.191,9.191,0,0,1-1.5-2.59,8.945,8.945,0,0,1-.555-3.226,7.521,7.521,0,0,1,.786-3.433,8.367,8.367,0,0,1,2.128-2.682,9.949,9.949,0,0,1,3.109-1.745,11.129,11.129,0,0,1,3.733-.624,12.512,12.512,0,0,1,2.578.242,11.3,11.3,0,0,1,2.023.613,7.989,7.989,0,0,1,1.5.809,11.85,11.85,0,0,1,1.04.809,3.94,3.94,0,0,1,.6.636,1.216,1.216,0,0,0,.208.266,1.021,1.021,0,0,1,.139.486.894.894,0,0,1-.243.6.8.8,0,0,1-.635.277.861.861,0,0,1-.739-.393c-.016-.015-.139-.158-.37-.428a4.942,4.942,0,0,0-1.133-.89,9.194,9.194,0,0,0-2.023-.879,10.073,10.073,0,0,0-3.017-.393,9.351,9.351,0,0,0-3.063.5,7.867,7.867,0,0,0-2.52,1.4,6.861,6.861,0,0,0-1.711,2.139,5.852,5.852,0,0,0-.636,2.716,7.035,7.035,0,0,0,.486,2.659,7.754,7.754,0,0,0,1.294,2.15,8.68,8.68,0,0,0,1.872,1.641A12.116,12.116,0,0,0,430.5,601a13,13,0,0,0,2.323.671,11.951,11.951,0,0,0,2.208.219,21.875,21.875,0,0,0,3.433-.266,12.835,12.835,0,0,0,3.306-1.006,14.455,14.455,0,0,0,3.2-2.034,19.214,19.214,0,0,0,3.121-3.375,36.345,36.345,0,0,0,3.063-5.017,68.776,68.776,0,0,0,3.04-6.936q.462-1.2.9-2.589t.9-2.8q-.395-2.034-.567-3.468a20.533,20.533,0,0,1-.173-2.381,6.48,6.48,0,0,1,.161-1.619,2.455,2.455,0,0,1,.416-.913,1.092,1.092,0,0,1,.555-.393,2.2,2.2,0,0,1,.578-.081,1.737,1.737,0,0,1,.52.092,1.12,1.12,0,0,1,.532.4,2.593,2.593,0,0,1,.405.913,6.479,6.479,0,0,1,.161,1.618,18.377,18.377,0,0,1-.208,2.566q-.207,1.456-.624,3.214.3,1.409.694,3.144t.809,3.595q.416,1.861.855,3.8t.856,3.791q.416,1.85.8,3.537t.7,3.052q.624-1.572,1.526-3.8t2.011-4.739q1.11-2.508,2.347-5.109t2.532-4.913q1.826-3.282,3.352-5.629t2.636-3.873q1.109-1.526,1.746-2.254t.681-.8a.85.85,0,0,1,.624-.254.822.822,0,0,1,.636.266.881.881,0,0,1,.243.613.812.812,0,0,1-.07.323c0,.016-.088.243-.266.682s-.4,1.041-.671,1.8-.566,1.657-.89,2.682-.639,2.127-.948,3.305-.582,2.413-.82,3.7-.413,2.57-.52,3.849q-.07.879-.115,1.839t-.047,1.93q0,1.526.139,3.074a22.608,22.608,0,0,0,.463,2.983,14.7,14.7,0,0,0,.878,2.693,8.88,8.88,0,0,0,1.364,2.208,6.31,6.31,0,0,0,1.931,1.526,6.017,6.017,0,0,0,2.6.624.769.769,0,0,1,.59.312,1,1,0,0,1,.219.612.8.8,0,0,1-.255.579.823.823,0,0,1-.6.254,3.974,3.974,0,0,1-.739-.07,8.09,8.09,0,0,1-2.936-.959,8.326,8.326,0,0,1-2.2-1.8,9.893,9.893,0,0,1-1.537-2.45,16.518,16.518,0,0,1-.983-2.947,23.172,23.172,0,0,1-.52-3.272q-.15-1.7-.15-3.433a40.8,40.8,0,0,1,.208-4.115q.207-2.057.554-4.011t.809-3.779Q476.758,574.567,477.244,572.995Z" transform="translate(-422.869 -567.377)" fill="#65125e" stroke="#8e4a88" stroke-width="0.8"/>
      <path id="Path_439" data-name="Path 439" d="M619.551,617.469a1.877,1.877,0,0,0-.658-.841,1.848,1.848,0,0,0-1.053-.4c-.279.4-.567.8-.86,1.216-.264.37-.533.74-.817,1.12q-.765,1.045-1.61,2.148c.02-1.513.043-2.955.077-4.31s.058-2.552.082-3.584.038-1.86.057-2.479.034-.942.034-.961a1.341,1.341,0,0,0-.3-.851,1,1,0,0,0-.841-.38,1.223,1.223,0,0,0-.817.3,1.145,1.145,0,0,0-.408.74,10.987,10.987,0,0,1-.745,2.845,7.524,7.524,0,0,1-1.216,1.989,5.06,5.06,0,0,1-1.437,1.167,3.085,3.085,0,0,1-1.4.38,2.965,2.965,0,0,1-1.072-.178,2.049,2.049,0,0,1-.985-.754,3.123,3.123,0,0,1-.48-1.038,4.934,4.934,0,0,1-.183-1.412,8.209,8.209,0,0,1,.663-3.455,7.451,7.451,0,0,1,1.644-2.354,6.335,6.335,0,0,1,2.114-1.341,6.012,6.012,0,0,1,2.086-.423,4.291,4.291,0,0,1,1.091.12,3.625,3.625,0,0,1,.788.318,4.134,4.134,0,0,1,.538.365c.139.115.245.207.332.264a1.3,1.3,0,0,0,.855.351,1.084,1.084,0,0,0,.817-.365,1.176,1.176,0,0,0,.351-.836,1.243,1.243,0,0,0-.351-.85c-.024-.019-.139-.125-.346-.312a4.578,4.578,0,0,0-.9-.605,8.007,8.007,0,0,0-1.4-.567,6.1,6.1,0,0,0-1.8-.25,7.96,7.96,0,0,0-3.013.63,8.783,8.783,0,0,0-2.859,1.893,9.98,9.98,0,0,0-2.133,3.143,10.664,10.664,0,0,0-.836,4.344,7.159,7.159,0,0,0,.332,2.224c0,.015.009.034.014.048a5.75,5.75,0,0,0,.985,1.816c.092.11.187.216.289.317a4.137,4.137,0,0,0,1.239.879,4.579,4.579,0,0,0,2.009.432,5.559,5.559,0,0,0,2.6-.7,7.162,7.162,0,0,0,2.258-1.893c-.043,1.221-.072,2.552-.082,4.008s-.029,2.917-.048,4.392a26.446,26.446,0,0,0-2.447,3.157,38.787,38.787,0,0,0-2.133,3.628q-.973,1.9-1.783,3.9a41.228,41.228,0,0,0-1.374,3.964,31.358,31.358,0,0,0-.87,3.806,21.841,21.841,0,0,0-.3,3.426,7.9,7.9,0,0,0,1.134,4.579,3.743,3.743,0,0,0,3.258,1.61,4.456,4.456,0,0,0,2.571-.74,6.291,6.291,0,0,0,1.865-2.052,12.554,12.554,0,0,0,1.259-3.1,28.571,28.571,0,0,0,.779-3.883c.187-1.4.322-2.873.394-4.42s.11-3.109.11-4.69-.01-3.032-.034-4.358-.029-2.652-.029-3.979q1.932-2.414,3.532-4.584c.264-.36.519-.711.769-1.057.274-.379.538-.75.793-1.115A1.724,1.724,0,0,0,619.551,617.469Zm-7.212,15.655c0,1.009-.079,2.114-.123,3.316s-.148,2.407-.253,3.618-.283,2.384-.49,3.518a17.071,17.071,0,0,1-.826,3.018,6.548,6.548,0,0,1-1.24,2.1,2.258,2.258,0,0,1-1.71.787,2.164,2.164,0,0,1-.678-.124,1.533,1.533,0,0,1-.663-.5,3.123,3.123,0,0,1-.5-1.076,6.627,6.627,0,0,1-.207-1.86,21.618,21.618,0,0,1,.461-4.157,35.67,35.67,0,0,1,1.308-4.782,41.418,41.418,0,0,1,2.056-4.882,31.308,31.308,0,0,1,2.747-4.469c.044.951.123,1.874.123,2.782Z" transform="translate(-530.612 -588.283)" fill="#65125e" stroke="#65125e" stroke-width="0.2"/>
      <path id="Path_440" data-name="Path 440" d="M662.7,605.525q-.127.253-.521,1.057t-1.011,1.848q-.616,1.042-1.437,2.179a14.485,14.485,0,0,1-1.832,2.084,9.986,9.986,0,0,1-2.179,1.563,5.217,5.217,0,0,1-2.463.616,4.334,4.334,0,0,1-3.079-1.169,6.785,6.785,0,0,1-1.816-2.937,9.276,9.276,0,0,1-2.558,2.858,4.974,4.974,0,0,1-5.085.631,4.563,4.563,0,0,1-1.61-1.2,5.565,5.565,0,0,1-1.026-1.816,6.854,6.854,0,0,1-.364-2.274,10.58,10.58,0,0,1,.837-4.342,10.03,10.03,0,0,1,2.132-3.143,8.806,8.806,0,0,1,2.858-1.894,8.037,8.037,0,0,1,3.016-.632,5.778,5.778,0,0,1,1.8.269,8.62,8.62,0,0,1,1.405.584,5.345,5.345,0,0,1,.9.584q.316.269.348.3a1.313,1.313,0,0,1,.348.853,1.179,1.179,0,0,1-.348.837,1.1,1.1,0,0,1-.822.363,1.158,1.158,0,0,1-.852-.348c-.042-.042-.137-.121-.284-.237a3.608,3.608,0,0,0-.6-.364,4.923,4.923,0,0,0-.9-.331,4.5,4.5,0,0,0-1.184-.142,5.614,5.614,0,0,0-2.084.442,5.9,5.9,0,0,0-2.021,1.373,7.71,7.71,0,0,0-1.532,2.337,8.252,8.252,0,0,0-.616,3.331,6.049,6.049,0,0,0,.126,1.216,3.37,3.37,0,0,0,.442,1.121,2.442,2.442,0,0,0,.853.821,2.575,2.575,0,0,0,1.326.316,2.96,2.96,0,0,0,1.311-.379,4.778,4.778,0,0,0,1.422-1.169,8.475,8.475,0,0,0,1.231-1.99,9.977,9.977,0,0,0,.774-2.842,1.169,1.169,0,0,1,.411-.742,1.215,1.215,0,0,1,.821-.3,1.039,1.039,0,0,1,.774.348,1.25,1.25,0,0,1,.363.789q.031.6.127,1.689a10.308,10.308,0,0,0,.426,2.164,5.283,5.283,0,0,0,.995,1.863,2.263,2.263,0,0,0,1.832.79,3.072,3.072,0,0,0,1.5-.41,7.092,7.092,0,0,0,1.453-1.09,12.324,12.324,0,0,0,1.358-1.547q.647-.868,1.184-1.752T659.8,606q.409-.822.695-1.421a1.206,1.206,0,0,1,.458-.537,1.187,1.187,0,0,1,.647-.19,1.079,1.079,0,0,1,.868.395,1.28,1.28,0,0,1,.332.837A1.121,1.121,0,0,1,662.7,605.525Z" transform="translate(-551.703 -586.313)" fill="#65125e" stroke="#65125e" stroke-width="0.2"/>
      <path id="Path_441" data-name="Path 441" d="M578.854,614.685a5.114,5.114,0,0,1-1.384.187,4.332,4.332,0,0,1-3.076-1.172,6.769,6.769,0,0,1-1.816-2.936,9.294,9.294,0,0,1-2.561,2.859,4.968,4.968,0,0,1-5.084.629,4.558,4.558,0,0,1-1.609-1.2,5.593,5.593,0,0,1-1.024-1.816,6.8,6.8,0,0,1-.365-2.273,10.594,10.594,0,0,1,.836-4.344,9.972,9.972,0,0,1,2.134-3.142,8.735,8.735,0,0,1,2.859-1.893,7.979,7.979,0,0,1,3.013-.634,5.825,5.825,0,0,1,1.8.269,8.373,8.373,0,0,1,1.4.586,5.592,5.592,0,0,1,.9.582c.207.182.321.279.346.3a1.309,1.309,0,0,1,.346.851,1.17,1.17,0,0,1-.346.836,1.088,1.088,0,0,1-.821.365,1.156,1.156,0,0,1-.851-.346,3.425,3.425,0,0,0-.288-.241,3.316,3.316,0,0,0-.6-.36,4.291,4.291,0,0,0-.9-.332,4.411,4.411,0,0,0-1.182-.144,5.653,5.653,0,0,0-2.086.442,5.983,5.983,0,0,0-2.023,1.374,7.7,7.7,0,0,0-1.528,2.335,8.229,8.229,0,0,0-.62,3.335,5.91,5.91,0,0,0,.13,1.215,3.309,3.309,0,0,0,.442,1.12,2.482,2.482,0,0,0,.851.822,2.578,2.578,0,0,0,1.326.317,3,3,0,0,0,1.312-.38,4.887,4.887,0,0,0,1.422-1.167,8.661,8.661,0,0,0,1.23-1.989,10.018,10.018,0,0,0,.773-2.845,1.154,1.154,0,0,1,.413-.74,1.2,1.2,0,0,1,.817-.3,1.023,1.023,0,0,1,.773.351,1.237,1.237,0,0,1,.365.788c.019.4.063.961.125,1.687a10.306,10.306,0,0,0,.428,2.167,5.232,5.232,0,0,0,.995,1.859,2.256,2.256,0,0,0,1.83.793c0,.015.01.034.015.048a5.741,5.741,0,0,0,.985,1.816Q578.7,614.533,578.854,614.685Z" transform="translate(-506.258 -586.311)" fill="#65125e" stroke="#65125e" stroke-width="0.2"/>
      <path id="Path_442" data-name="Path 442" d="M616.018,616.893a1.884,1.884,0,1,1-1.884-1.884A1.884,1.884,0,0,1,616.018,616.893Z" transform="translate(-535.531 -595.057)" fill="#fbb03b"/>
      <path id="Path_443" data-name="Path 443" d="M471.92,623.92a1.8,1.8,0,1,1-1.8-1.8A1.8,1.8,0,0,1,471.92,623.92Z" transform="translate(-450.118 -600.2)" fill="#fbb03b"/>
    </g>
    <text id="Quidam_officiis_simi" data-name="Quidam officiis simi" transform="translate(-1384 -172)" fill="#f55d4e" font-size="11" font-family="ProximaNova-Regular, Proxima Nova"><tspan x="-33.203" y="0">Poder Natural</tspan></text>
  </g>
</svg>
